<svg width="21" height="20" viewBox="0 0 21 20" fill="none" xmlns="http://www.w3.org/2000/svg">
<path d="M9 19.5C9.55228 19.5 10 19.0523 10 18.5C10 17.9477 9.55228 17.5 9 17.5C8.44772 17.5 8 17.9477 8 18.5C8 19.0523 8.44772 19.5 9 19.5Z" stroke="white" stroke-linecap="round" stroke-linejoin="round"/>
<path d="M16 19.5C16.5523 19.5 17 19.0523 17 18.5C17 17.9477 16.5523 17.5 16 17.5C15.4477 17.5 15 17.9477 15 18.5C15 19.0523 15.4477 19.5 16 19.5Z" stroke="white" stroke-linecap="round" stroke-linejoin="round"/>
<path d="M1 1.5H4.09428L6.41499 14.6507H18.7921" stroke="white" stroke-width="1.5" stroke-linecap="round" stroke-linejoin="round"/>
<path d="M6.00043 11.4684L18.4754 11.556C18.5649 11.5561 18.6516 11.5251 18.7208 11.4684C18.79 11.4118 18.8374 11.3328 18.8549 11.2451L20.2474 4.283C20.2586 4.22686 20.2572 4.16893 20.2434 4.11338C20.2295 4.05784 20.2035 4.00606 20.1671 3.9618C20.1308 3.91753 20.0851 3.88188 20.0334 3.85741C19.9816 3.83294 19.9251 3.82027 19.8678 3.82031L4.73729 3.82031" stroke="white" stroke-width="1.5" stroke-linecap="round" stroke-linejoin="round"/>
</svg>
